<svg width="21" height="23" viewBox="0 0 21 23" fill="none" xmlns="http://www.w3.org/2000/svg">
<path d="M4.23467 10.759C3.70139 10.1959 3.22099 9.57546 2.80377 8.90888L2.77659 8.86202C2.18528 7.64223 1.83931 6.20478 1.83931 4.68419C1.83931 4.00325 1.90909 3.33894 2.04057 2.69806L2.02956 2.76003C2.03543 2.72073 2.03837 2.67614 2.03837 2.63004C2.03837 2.10857 1.62702 1.68534 1.12019 1.68534C0.649341 1.68534 0.260765 2.05037 0.207877 2.52045L0.207143 2.52499C0.0756584 3.18099 0 3.93448 0 4.70611C0 6.56905 0.439994 8.32619 1.21788 9.87399L1.18923 9.81126C1.69974 10.6449 2.25506 11.3696 2.87576 12.0287L2.87208 12.0249C3.31061 12.498 3.72196 13.0081 4.09878 13.5462L4.12743 13.5885C4.85683 14.7448 5.29095 16.1596 5.29095 17.6779C5.29095 18.4927 5.16608 19.2771 4.9347 20.0132L4.94939 19.9596C4.92294 20.0435 4.90825 20.1395 4.90825 20.24C4.90825 20.6617 5.17636 21.0184 5.54731 21.1401L5.55392 21.1416C5.63472 21.1688 5.72801 21.1847 5.82497 21.1847C5.8257 21.1847 5.82644 21.1847 5.82717 21.1847C6.23705 21.1847 6.58376 20.9081 6.70202 20.5272L6.70349 20.5204C6.97821 19.6671 7.13614 18.6846 7.13614 17.6643C7.13614 15.7538 6.58082 13.9762 5.62811 12.4942L5.64941 12.529C5.19252 11.8707 4.72902 11.2925 4.22879 10.7499L4.2354 10.7575L4.23467 10.759ZM11.1798 10.8043C10.5305 10.1189 9.94578 9.36309 9.43821 8.55065L9.40516 8.49397C8.67942 7.00361 8.25485 5.24572 8.25485 3.38655C8.25485 2.56051 8.33859 1.75487 8.49799 0.977952L8.48477 1.05353C8.48844 1.02103 8.49064 0.983242 8.49064 0.944698C8.49064 0.423225 8.0793 0 7.57246 0C7.10822 0 6.72479 0.354451 6.66309 0.813952L6.66235 0.819242C6.50516 1.59843 6.41554 2.49325 6.41554 3.40998C6.41554 5.61226 6.93414 7.68909 7.85232 9.52029L7.81853 9.44547C8.426 10.4348 9.08563 11.2941 9.82164 12.0763L9.81797 12.0717C10.3483 12.6446 10.8471 13.2628 11.304 13.9143L11.3385 13.9664C12.2324 15.385 12.7642 17.1187 12.7642 18.9809C12.7642 19.9785 12.6115 20.9398 12.3287 21.8407L12.3463 21.7749C12.3198 21.8588 12.3052 21.9548 12.3052 22.0553C12.3052 22.477 12.5733 22.8337 12.9442 22.9554L12.9508 22.9569C13.0316 22.9841 13.1249 23 13.2211 23C13.2219 23 13.2226 23 13.2233 23C13.6332 23 13.9799 22.7234 14.0982 22.3425L14.0997 22.3357C14.4236 21.3283 14.6102 20.1689 14.6102 18.9642C14.6102 16.7106 13.9564 14.6149 12.834 12.8653L12.859 12.9068C12.3162 12.1254 11.7653 11.4399 11.1717 10.7953L11.1798 10.8043ZM19.5118 12.6816C19.0557 12.0241 18.5914 11.4467 18.0919 10.9048L18.0985 10.9116C17.5653 10.3478 17.0841 9.72661 16.6669 9.05928L16.6397 9.01242C16.0513 7.78658 15.7076 6.34308 15.7076 4.81796C15.7076 4.14307 15.7752 3.4848 15.903 2.84845L15.8927 2.91118C15.8971 2.87566 15.9 2.83561 15.9 2.79404C15.9 2.31413 15.5519 1.91736 15.1016 1.8569L15.0972 1.85614C15.0656 1.85236 15.0289 1.8501 14.9914 1.8501C14.5228 1.8501 14.1356 2.20681 14.0717 2.67161L14.071 2.6769C13.9432 3.32609 13.8705 4.07278 13.8705 4.83685C13.8705 6.7066 14.3075 8.47054 15.0832 10.0274L15.0538 9.96316C15.5651 10.7975 16.1204 11.5231 16.7411 12.1821L16.7374 12.1783C17.1745 12.6506 17.5858 13.1608 17.9626 13.6974L17.9913 13.7404C18.7207 14.8968 19.1548 16.3115 19.1548 17.8299C19.1548 18.6446 19.0299 19.429 18.7993 20.1644L18.814 20.1107C18.7875 20.1946 18.7728 20.2906 18.7728 20.3911C18.7728 20.8128 19.041 21.1696 19.4119 21.2912L19.4185 21.2927C19.4993 21.3199 19.5926 21.3358 19.6888 21.3358C19.6896 21.3358 19.6903 21.3358 19.691 21.3358C20.1009 21.3358 20.4476 21.0592 20.5659 20.6783L20.5674 20.6715C20.8413 19.8183 21 18.8365 21 17.8163C21 15.9057 20.4454 14.1282 19.492 12.6454L19.5133 12.6801L19.5118 12.6816Z" fill="#C4122F"/>
</svg>
