<svg width="24" height="25" viewBox="0 0 24 25" fill="none" xmlns="http://www.w3.org/2000/svg">
<path d="M6.16823 0.0784621C5.89362 0.17654 5.4915 0.56885 5.32477 0.912122C5.22669 1.11809 5.19727 1.23578 5.19727 1.57905C5.19727 2.08905 5.31496 2.37348 5.68765 2.74618C6.07016 3.13849 6.18785 3.1581 7.64921 3.1581H8.87518V3.77599V4.39388L9.04191 4.56061C9.2773 4.796 9.51268 4.796 9.73826 4.56061L9.90499 4.39388V3.77599V3.1581H11.1506C12.2687 3.1581 12.4158 3.14829 12.6021 3.06002C13.0827 2.84425 13.3769 2.48137 13.5241 1.95175C13.7104 1.23578 13.3279 0.44135 12.6414 0.117693L12.3864 0L9.37537 0.00980776C6.78612 -3.65368e-09 6.35458 0.0196155 6.16823 0.0784621ZM12.4648 1.15732C12.5629 1.28482 12.5629 1.87328 12.4648 2.01059C12.3962 2.09886 12.3079 2.10867 9.4048 2.10867C5.94266 2.10867 6.2467 2.15771 6.2467 1.58886C6.2467 1.00039 5.97208 1.04943 9.43422 1.05924C12.2981 1.05924 12.3962 1.06905 12.4648 1.15732Z" fill="#C4122F"/>
<path d="M7.54217 5.41396C7.39506 5.54146 7.38525 5.58069 7.35583 5.93377L7.33621 6.31627H3.83484H0.333464L0.166732 6.483L0 6.64974V9.46457V12.2794L0.147117 12.4363L0.294233 12.6031L7.52256 12.6325L14.7411 12.6619L15.0157 12.7894C15.1628 12.8581 15.359 12.9856 15.4472 13.0738C15.7317 13.3582 15.7709 13.4858 15.7905 14.1527L15.8101 14.7608H15.4276C15.0745 14.7608 15.0353 14.7706 14.9078 14.9079L14.7607 15.055V16.3104C14.7607 17.6933 14.7607 17.7227 15.0843 17.86C15.3295 17.9679 22.5775 17.9679 22.8227 17.86C23.1267 17.7325 23.1365 17.6835 23.1463 16.3398C23.1463 15.5454 23.1267 15.0942 23.0973 15.0256C22.9894 14.8294 22.8423 14.7706 22.4696 14.7706H22.1165L22.0871 13.8388C22.0675 13.2111 22.0282 12.76 21.9596 12.4265C21.6457 10.9063 20.9788 9.64111 19.9098 8.58187C18.9486 7.62071 17.7913 6.95378 16.5065 6.63012C15.5944 6.39473 15.4276 6.38493 13.4857 6.3555L11.6026 6.32608L11.583 5.95339C11.5634 5.61011 11.5536 5.57088 11.4064 5.44338L11.2495 5.29626H9.4743H7.6991L7.54217 5.41396ZM10.5237 6.69878C10.5532 7.05186 10.563 7.09109 10.7101 7.21859L10.867 7.3559H12.6618C14.5645 7.3559 15.3001 7.40493 16.0455 7.56186C18.3405 8.05225 19.998 9.51361 20.714 11.6615C20.9494 12.3677 21.0475 13.015 21.0475 13.9369L21.0573 14.7215H18.9584H16.8596L16.8301 14.0546C16.8007 13.4269 16.7909 13.3681 16.6438 13.0542C16.3594 12.4854 15.7905 11.995 15.0451 11.7007C14.849 11.6223 14.3291 11.6125 7.9541 11.5929L1.06905 11.5634V9.47437V7.37551L4.59984 7.34609C8.48372 7.31667 8.23853 7.34609 8.37583 7.01262C8.41507 6.92435 8.44449 6.7282 8.44449 6.58108V6.31627H9.4743H10.4943L10.5237 6.69878ZM22.1067 16.3104V16.8302H18.9486H15.7905V16.3104V15.7906H18.9486H22.1067V16.3104Z" fill="#C4122F"/>
<path d="M18.5561 19.184C18.3502 19.3998 17.6734 20.5767 17.3498 21.2731C16.9476 22.146 16.8594 22.4304 16.8594 22.9306C16.8594 23.3523 16.8594 23.4014 17.0359 23.7446C17.2713 24.2154 17.6734 24.6175 18.1442 24.8431C18.4482 24.9902 18.5267 25 18.9484 25C19.3702 25 19.4486 24.9804 19.7527 24.8431C20.2234 24.6175 20.6354 24.2154 20.8609 23.7446C21.0375 23.4014 21.0473 23.3523 21.0375 22.9306C21.0375 22.4304 20.9492 22.1558 20.5471 21.2731C20.2234 20.5767 19.5369 19.3998 19.3407 19.184C19.1838 19.0173 19.1348 18.9977 18.9484 18.9977C18.7621 18.9977 18.713 19.0173 18.5561 19.184ZM19.4094 21.3515C19.6448 21.8125 19.8802 22.3421 19.939 22.5383C20.0371 22.8521 20.0371 22.9208 19.9881 23.1758C19.8998 23.5779 19.635 23.8427 19.2427 23.931C18.5954 24.0781 18.0461 23.7544 17.9186 23.1758C17.8696 22.9208 17.8696 22.8521 17.9677 22.5383C18.0755 22.1754 18.8896 20.5277 18.9582 20.5277C18.968 20.5277 19.174 20.9004 19.4094 21.3515Z" fill="#C4122F"/>
</svg>
