<svg width="203" height="40" viewBox="0 0 203 40" fill="none" xmlns="http://www.w3.org/2000/svg">
<path d="M195.584 40H6.37373C2.8534 40 0 37.1466 0 33.6262V6.37328C0 2.85338 2.8534 -1.90735e-05 6.37373 -1.90735e-05H195.584C199.104 -1.90735e-05 201.958 2.85338 201.958 6.37328V33.6262C201.958 37.1466 199.104 40 195.584 40Z" fill="#C4122F"/>
<path d="M79.1112 27.731C78.3272 27.731 77.5811 27.5779 76.8939 27.2755C76.2155 26.9807 75.6142 26.5709 75.1045 26.0601C74.5979 25.5534 74.1881 24.9503 73.8912 24.2694C73.5893 23.5792 73.4387 22.8336 73.4387 22.0487V18.2611C73.4387 17.4935 73.5893 16.7509 73.8874 16.0518C74.1894 15.3603 74.6 14.7552 75.1045 14.2485C75.6154 13.7385 76.2177 13.3308 76.8947 13.0339C77.5828 12.7328 78.3272 12.5797 79.1112 12.5797H87.0252C87.8097 12.5797 88.56 12.7328 89.248 13.0339C89.9336 13.3278 90.5396 13.7376 91.0492 14.2472C91.5576 14.7636 91.9695 15.3692 92.2651 16.0488C92.5641 16.7433 92.7147 17.488 92.7147 18.2611V22.0487C92.7147 22.8379 92.5641 23.5847 92.2651 24.2707C91.9686 24.9491 91.5576 25.5526 91.0492 26.0613C90.5354 26.573 89.9294 26.982 89.248 27.2768C88.56 27.5779 87.8097 27.731 87.0252 27.731H79.1112ZM79.1112 15.7617C78.767 15.7617 78.4574 15.8247 78.1597 15.9541C77.8594 16.0856 77.5959 16.265 77.357 16.5043C77.1295 16.7327 76.9434 17.0034 76.8068 17.31C76.6786 17.6035 76.616 17.9164 76.616 18.2611V22.0487C76.616 22.3909 76.6803 22.714 76.8068 23.0032C76.9421 23.3043 77.1235 23.5682 77.3599 23.8118C77.5896 24.0402 77.8539 24.2195 78.1618 24.3566C78.4549 24.4839 78.767 24.5469 79.1112 24.5469H87.0252C87.3728 24.5469 87.6913 24.4826 87.9928 24.3523C88.2969 24.2195 88.5752 24.0305 88.7964 23.8089C89.0277 23.5759 89.2074 23.3107 89.3445 23.0011C89.473 22.7051 89.5386 22.3845 89.5386 22.0487V18.2611C89.5386 17.9185 89.4756 17.6077 89.3445 17.3087C89.2155 17.0076 89.0307 16.7369 88.7985 16.5043C88.5705 16.276 88.2982 16.0911 87.9869 15.9562C87.6879 15.8247 87.3728 15.7617 87.0252 15.7617H79.1112Z" fill="white"/>
<path d="M56.9155 27.5919C56.1323 27.5919 55.3854 27.4396 54.6944 27.1385C54.0131 26.8361 53.41 26.4255 52.9004 25.9167C52.4022 25.4177 51.9949 24.8184 51.6938 24.138C51.3936 23.4541 51.243 22.7009 51.243 21.9007V12.4414H54.4187V21.9007C54.4187 22.2518 54.4817 22.5825 54.6098 22.8794C54.735 23.1779 54.9101 23.4313 55.141 23.6533C55.3799 23.8935 55.6582 24.0826 55.9674 24.223C56.26 24.349 56.5709 24.4133 56.9155 24.4133H66.5102V27.5919H56.9155Z" fill="white"/>
<path d="M100.223 27.5919V15.6213H93.6619V12.4414H109.958V15.6213H103.399V27.5919H100.223Z" fill="white"/>
<path d="M71.4538 12.4415H68.2748V27.592H71.4538V12.4415Z" fill="white"/>
<path d="M124.584 27.5582V21.5998H114.924V27.5582H111.746V12.4416H114.924V18.4144H124.584V12.4416H127.779V27.5582H124.584Z" fill="white"/>
<path d="M27.0374 27.5582V21.5998H17.3763V27.5582H14.1998V12.4416H17.3763V18.4144H27.0374V12.4416H30.2354V27.5582H27.0374Z" fill="white"/>
<path d="M135.823 27.5919C135.036 27.5919 134.292 27.4396 133.605 27.1377C132.928 26.8416 132.327 26.4331 131.815 25.921C131.311 25.4156 130.899 24.8142 130.601 24.1325C130.302 23.4414 130.152 22.6933 130.152 21.9105V18.1229C130.152 17.3544 130.302 16.6097 130.601 15.9127C130.898 15.2259 131.306 14.6203 131.815 14.1103C132.328 13.5985 132.931 13.1896 133.606 12.8961C134.293 12.5937 135.036 12.4414 135.823 12.4414H146.515V15.6247H135.823C135.475 15.6247 135.162 15.6869 134.872 15.8137C134.563 15.952 134.301 16.1326 134.071 16.3652C133.837 16.5966 133.653 16.8685 133.516 17.1717C133.39 17.4673 133.326 17.7782 133.326 18.1229V18.4142L146.497 18.4197V21.5996H133.326V21.9105C133.326 22.2454 133.39 22.5673 133.519 22.8663C133.657 23.1716 133.839 23.4346 134.074 23.6706C134.299 23.8977 134.558 24.0783 134.874 24.2196C135.167 24.3456 135.478 24.4086 135.823 24.4086H146.515V27.5919H135.823Z" fill="white"/>
<path d="M38.2226 27.5919C37.4364 27.5919 36.6904 27.4396 36.0065 27.1377C35.3282 26.8408 34.723 26.4318 34.2146 25.921C33.7071 25.4101 33.2982 24.8087 33.0017 24.1316C32.7032 23.4456 32.5517 22.6988 32.5517 21.9105V18.1229C32.5517 17.3434 32.7032 16.5999 33.0017 15.9119C33.2999 15.228 33.7084 14.6224 34.2146 14.1103C34.7276 13.5994 35.3316 13.1908 36.0095 12.8961C36.6929 12.5937 37.4372 12.4414 38.2226 12.4414H48.9172V15.6247H38.2226C37.875 15.6247 37.565 15.6869 37.2744 15.8137C36.9699 15.9499 36.7069 16.1301 36.47 16.3652C36.2374 16.5987 36.053 16.8706 35.9219 17.1717C35.7896 17.4695 35.7253 17.7816 35.7253 18.1229V18.4142L48.902 18.4197V21.5996H35.7253V21.9105C35.7253 22.2463 35.7917 22.5673 35.9219 22.8663C36.0539 23.1661 36.2332 23.4313 36.473 23.6706C36.7026 23.8999 36.9653 24.0796 37.2765 24.2196C37.5713 24.3456 37.8813 24.4086 38.2226 24.4086H48.9172V27.5919H38.2226Z" fill="white"/>
<path d="M162.773 27.5917L159.284 22.304H152.162V27.5917H148.864V12.4416H160.523C160.888 12.4416 161.215 12.4784 161.483 12.5309C161.753 12.5829 162.121 12.6992 162.165 12.7187C164.183 13.4592 165.49 15.317 165.49 17.3707C165.49 18.3675 165.193 19.3296 164.629 20.1526C164.416 20.5168 164.192 20.8221 163.952 21.0746C163.597 21.4637 163.192 21.7834 162.746 22.0236L166.439 27.5917H162.773ZM160.793 19.1068C160.959 19.1068 161.107 19.0729 161.261 19.0023C161.431 18.9219 161.573 18.8188 161.691 18.6872C161.835 18.5329 161.943 18.3633 162.035 18.151C162.106 17.9784 162.153 17.5065 162.153 17.2455C162.153 17.0087 162.112 16.7998 162.03 16.6086C161.949 16.4073 161.842 16.2445 161.708 16.1075C161.566 15.9662 161.41 15.8575 161.231 15.7759C161.069 15.7006 160.904 15.6651 160.728 15.6651L152.262 15.6452V19.1068H160.793Z" fill="white"/>
<path d="M187.755 15.4301C187.74 15.041 187.64 14.6604 187.458 14.3005C187.288 13.9571 187.059 13.6463 186.781 13.3777C186.503 13.1079 186.187 12.885 185.837 12.7175C185.454 12.534 185.048 12.4418 184.626 12.4418H184.187C183.509 12.4566 182.903 12.6884 182.386 13.1286C181.941 13.5126 181.61 13.966 181.413 14.4646L177.776 21.8952L174.175 14.4735C174.081 14.2451 173.954 14.0138 173.791 13.7884C173.61 13.5329 173.393 13.3079 173.146 13.1168C172.9 12.9252 172.634 12.7687 172.362 12.6545C172.04 12.5124 171.697 12.4418 171.344 12.4418H170.881C170.163 12.4904 169.536 12.7395 169.014 13.1819C168.515 13.6061 168.161 14.1322 167.97 14.7365C167.921 14.8638 167.89 14.9822 167.876 15.1028C167.844 15.2212 167.829 15.3464 167.829 15.477V27.5918H171.006L171.019 15.6822C171.019 15.628 171.063 15.5824 171.119 15.5824C171.188 15.5824 171.223 15.6627 171.23 15.6745L177.124 27.7276H178.557C178.557 27.7276 184.373 15.6745 184.39 15.6399C184.406 15.6052 184.442 15.5824 184.483 15.5824C184.538 15.5824 184.583 15.6238 184.583 15.6855V27.5918H187.758L187.755 15.4301Z" fill="white"/>
<path d="M79.1112 27.731C78.3272 27.731 77.5811 27.5779 76.8939 27.2755C76.2155 26.9807 75.6142 26.5709 75.1045 26.0601C74.5979 25.5534 74.1881 24.9503 73.8912 24.2694C73.5893 23.5792 73.4387 22.8336 73.4387 22.0487V18.2611C73.4387 17.4935 73.5893 16.7509 73.8874 16.0518C74.1894 15.3603 74.6 14.7552 75.1045 14.2485C75.6154 13.7385 76.2177 13.3308 76.8947 13.0339C77.5828 12.7328 78.3272 12.5797 79.1112 12.5797H87.0252C87.8097 12.5797 88.56 12.7328 89.248 13.0339C89.9336 13.3278 90.5396 13.7376 91.0492 14.2472C91.5576 14.7636 91.9695 15.3692 92.2651 16.0488C92.5641 16.7433 92.7147 17.488 92.7147 18.2611V22.0487C92.7147 22.8379 92.5641 23.5847 92.2651 24.2707C91.9686 24.9491 91.5576 25.5526 91.0492 26.0613C90.5354 26.573 89.9294 26.982 89.248 27.2768C88.56 27.5779 87.8097 27.731 87.0252 27.731H79.1112ZM79.1112 15.7617C78.767 15.7617 78.4574 15.8247 78.1597 15.9541C77.8594 16.0856 77.5959 16.265 77.357 16.5043C77.1295 16.7327 76.9434 17.0034 76.8068 17.31C76.6786 17.6035 76.616 17.9164 76.616 18.2611V22.0487C76.616 22.3909 76.6803 22.714 76.8068 23.0032C76.9421 23.3043 77.1235 23.5682 77.3599 23.8118C77.5896 24.0402 77.8539 24.2195 78.1618 24.3566C78.4549 24.4839 78.767 24.5469 79.1112 24.5469H87.0252C87.3728 24.5469 87.6913 24.4826 87.9928 24.3523C88.2969 24.2195 88.5752 24.0305 88.7964 23.8089C89.0277 23.5759 89.2074 23.3107 89.3445 23.0011C89.473 22.7051 89.5386 22.3845 89.5386 22.0487V18.2611C89.5386 17.9185 89.4756 17.6077 89.3445 17.3087C89.2155 17.0076 89.0307 16.7369 88.7985 16.5043C88.5705 16.276 88.2982 16.0911 87.9869 15.9562C87.6879 15.8247 87.3728 15.7617 87.0252 15.7617H79.1112Z" fill="white"/>
<path d="M56.9155 27.5919C56.1323 27.5919 55.3854 27.4396 54.6944 27.1385C54.0131 26.8361 53.41 26.4255 52.9004 25.9167C52.4022 25.4177 51.9949 24.8184 51.6938 24.138C51.3936 23.4541 51.243 22.7009 51.243 21.9007V12.4414H54.4187V21.9007C54.4187 22.2518 54.4817 22.5825 54.6098 22.8794C54.735 23.1779 54.9101 23.4313 55.141 23.6533C55.3799 23.8935 55.6582 24.0826 55.9674 24.223C56.26 24.349 56.5709 24.4133 56.9155 24.4133H66.5102V27.5919H56.9155Z" fill="white"/>
<path d="M100.223 27.5919V15.6213H93.6619V12.4414H109.958V15.6213H103.399V27.5919H100.223Z" fill="white"/>
<path d="M71.4538 12.4415H68.2748V27.592H71.4538V12.4415Z" fill="white"/>
<path d="M124.584 27.5582V21.5998H114.924V27.5582H111.746V12.4416H114.924V18.4144H124.584V12.4416H127.779V27.5582H124.584Z" fill="white"/>
<path d="M27.0374 27.5582V21.5998H17.3763V27.5582H14.1998V12.4416H17.3763V18.4144H27.0374V12.4416H30.2354V27.5582H27.0374Z" fill="white"/>
<path d="M135.823 27.5919C135.036 27.5919 134.292 27.4396 133.605 27.1377C132.928 26.8416 132.327 26.4331 131.815 25.921C131.311 25.4156 130.899 24.8142 130.601 24.1325C130.302 23.4414 130.152 22.6933 130.152 21.9105V18.1229C130.152 17.3544 130.302 16.6097 130.601 15.9127C130.898 15.2259 131.306 14.6203 131.815 14.1103C132.328 13.5985 132.931 13.1896 133.606 12.8961C134.293 12.5937 135.036 12.4414 135.823 12.4414H146.515V15.6247H135.823C135.475 15.6247 135.162 15.6869 134.872 15.8137C134.563 15.952 134.301 16.1326 134.071 16.3652C133.837 16.5966 133.653 16.8685 133.516 17.1717C133.39 17.4673 133.326 17.7782 133.326 18.1229V18.4142L146.497 18.4197V21.5996H133.326V21.9105C133.326 22.2454 133.39 22.5673 133.519 22.8663C133.657 23.1716 133.839 23.4346 134.074 23.6706C134.299 23.8977 134.558 24.0783 134.874 24.2196C135.167 24.3456 135.478 24.4086 135.823 24.4086H146.515V27.5919H135.823Z" fill="white"/>
<path d="M38.2226 27.5919C37.4364 27.5919 36.6904 27.4396 36.0065 27.1377C35.3282 26.8408 34.723 26.4318 34.2146 25.921C33.7071 25.4101 33.2982 24.8087 33.0017 24.1316C32.7032 23.4456 32.5517 22.6988 32.5517 21.9105V18.1229C32.5517 17.3434 32.7032 16.5999 33.0017 15.9119C33.2999 15.228 33.7084 14.6224 34.2146 14.1103C34.7276 13.5994 35.3316 13.1908 36.0095 12.8961C36.6929 12.5937 37.4372 12.4414 38.2226 12.4414H48.9172V15.6247H38.2226C37.875 15.6247 37.565 15.6869 37.2744 15.8137C36.9699 15.9499 36.7069 16.1301 36.47 16.3652C36.2374 16.5987 36.053 16.8706 35.9219 17.1717C35.7896 17.4695 35.7253 17.7816 35.7253 18.1229V18.4142L48.902 18.4197V21.5996H35.7253V21.9105C35.7253 22.2463 35.7917 22.5673 35.9219 22.8663C36.0539 23.1661 36.2332 23.4313 36.473 23.6706C36.7026 23.8999 36.9653 24.0796 37.2765 24.2196C37.5713 24.3456 37.8813 24.4086 38.2226 24.4086H48.9172V27.5919H38.2226Z" fill="white"/>
<path d="M162.773 27.5917L159.284 22.304H152.162V27.5917H148.864V12.4416H160.523C160.888 12.4416 161.215 12.4784 161.483 12.5309C161.753 12.5829 162.121 12.6992 162.165 12.7187C164.183 13.4592 165.49 15.317 165.49 17.3707C165.49 18.3675 165.193 19.3296 164.629 20.1526C164.416 20.5168 164.192 20.8221 163.952 21.0746C163.597 21.4637 163.192 21.7834 162.746 22.0236L166.439 27.5917H162.773ZM160.793 19.1068C160.959 19.1068 161.107 19.0729 161.261 19.0023C161.431 18.9219 161.573 18.8188 161.691 18.6872C161.835 18.5329 161.943 18.3633 162.035 18.151C162.106 17.9784 162.153 17.5065 162.153 17.2455C162.153 17.0087 162.112 16.7998 162.03 16.6086C161.949 16.4073 161.842 16.2445 161.708 16.1075C161.566 15.9662 161.41 15.8575 161.231 15.7759C161.069 15.7006 160.904 15.6651 160.728 15.6651L152.262 15.6452V19.1068H160.793Z" fill="white"/>
<path d="M187.755 15.4301C187.74 15.041 187.64 14.6604 187.458 14.3005C187.288 13.9571 187.059 13.6463 186.781 13.3777C186.503 13.1079 186.187 12.885 185.837 12.7175C185.454 12.534 185.048 12.4418 184.626 12.4418H184.187C183.509 12.4566 182.903 12.6884 182.386 13.1286C181.941 13.5126 181.61 13.966 181.413 14.4646L177.776 21.8952L174.175 14.4735C174.081 14.2451 173.954 14.0138 173.791 13.7884C173.61 13.5329 173.393 13.3079 173.146 13.1168C172.9 12.9252 172.634 12.7687 172.362 12.6545C172.04 12.5124 171.697 12.4418 171.344 12.4418H170.881C170.163 12.4904 169.536 12.7395 169.014 13.1819C168.515 13.6061 168.161 14.1322 167.97 14.7365C167.921 14.8638 167.89 14.9822 167.876 15.1028C167.844 15.2212 167.829 15.3464 167.829 15.477V27.5918H171.006L171.019 15.6822C171.019 15.628 171.063 15.5824 171.119 15.5824C171.188 15.5824 171.223 15.6627 171.23 15.6745L177.124 27.7276H178.557C178.557 27.7276 184.373 15.6745 184.39 15.6399C184.406 15.6052 184.442 15.5824 184.483 15.5824C184.538 15.5824 184.583 15.6238 184.583 15.6855V27.5918H187.758L187.755 15.4301Z" fill="white"/>
</svg>
