<svg width="21" height="21" viewBox="0 0 21 21" fill="none" xmlns="http://www.w3.org/2000/svg">
<path d="M10.5127 6.51953L14.8594 2.17285C15.4156 1.61682 16.1375 1.33402 16.8555 1.33398C17.5736 1.33398 18.2963 1.61658 18.8525 2.17285C19.9586 3.27894 19.9584 5.05983 18.8525 6.16602L14.5059 10.5127L20.2842 16.291L20.0732 16.4941L16.4941 20.0732L16.291 20.2842L10.5127 14.5059L10.1592 14.8594L6.22266 18.7949L6.11816 18.8164L1.67188 19.7012L1.66504 19.7021L1.23047 19.7939L1.32324 19.3604L1.32422 19.3535L2.20898 14.9062L2.22949 14.8008L6.16602 10.8662L6.51953 10.5127L0.714844 4.70801L0.926758 4.50586L4.50586 0.926758L4.70801 0.714844L10.5127 6.51953ZM10.9424 14.0762L11.2959 14.4297L15.9209 19.0537L16.2744 19.4072L19.4072 16.2744L19.0537 15.9209L17.5127 14.3789L17.1592 14.0254L16.8057 14.3789L15.9453 15.2383L15.4902 14.7832L16.7031 13.5703L16.3496 13.2168L14.4297 11.2959L14.0762 10.9424L10.9424 14.0762ZM2.69336 15.5957L2.16309 18.2744L2.01758 19.0078L2.75098 18.8623L5.42969 18.332L6.03027 18.2129L5.79297 17.6475C5.33481 16.5572 4.46822 15.6906 3.37793 15.2324L2.8125 14.9951L2.69336 15.5957ZM3.38379 14.5332L3.98926 14.8477C4.92471 15.3341 5.6913 16.1007 6.17773 17.0361L6.49219 17.6406L17.1074 7.02539L16.7539 6.67188L14.3535 4.27051L14 3.91699L3.38379 14.5332ZM4.34863 1.94434L1.92285 4.34473L1.56543 4.69824L1.9209 5.05371L6.5957 9.72949L6.94922 10.083L10.0576 6.97461L7.42969 4.34668L7.07617 4.7002L6.24121 5.53418L5.78613 5.0791L6.62109 4.24512L6.97168 3.89453L6.62305 3.54102L5.05664 1.94922L4.70508 1.5918L4.34863 1.94434ZM16.8555 1.90039C16.2715 1.90043 15.7499 2.16812 15.3145 2.60352L14.7832 3.13379L14.4297 3.4873L14.7832 3.84082L17.1846 6.24121L17.5381 6.59473L18.4219 5.71094C18.8641 5.26875 19.1162 4.72902 19.1162 4.15723C19.1162 3.58539 18.8641 3.04574 18.4219 2.60352C17.9798 2.16142 17.4318 1.90039 16.8555 1.90039Z" fill="#C4122F" stroke="#C4122F"/>
</svg>
