<svg width="28" height="27" viewBox="0 0 28 27" fill="none" xmlns="http://www.w3.org/2000/svg">
<path d="M14.2631 6.76632C10.4506 6.76632 7.349 9.80957 7.349 13.5517C7.349 17.2938 10.4506 20.3365 14.2631 20.3365C18.0756 20.3365 21.1771 17.2927 21.1771 13.5517C21.1771 9.81073 18.0756 6.76632 14.2631 6.76632ZM14.2631 18.9792C11.2133 18.9792 8.73205 16.5441 8.73205 13.5517C8.73205 10.5581 11.2133 8.1242 14.2631 8.1242C17.3134 8.1242 19.7935 10.5598 19.7935 13.5517C19.7935 16.5447 17.3134 18.9792 14.2631 18.9792ZM13.5715 3.50589V0.678076C13.5715 0.303228 13.8811 0 14.2631 0C14.6444 0 14.9546 0.303228 14.9546 0.678076V3.50589C14.9546 3.88016 14.6439 4.18455 14.2631 4.18455C13.8811 4.18455 13.5715 3.88016 13.5715 3.50589ZM20.6545 7.43457C20.3844 7.17004 20.3844 6.74033 20.6545 6.47522L23.1317 4.0442C23.4018 3.77967 23.8397 3.77967 24.1098 4.0442C24.3799 4.3093 24.3799 4.73902 24.1098 5.00355L21.6327 7.43457C21.4979 7.56684 21.3219 7.63326 21.1442 7.63326C20.9676 7.63326 20.7905 7.56684 20.6545 7.43457ZM3.31344 5.00355C3.04389 4.73902 3.04389 4.3093 3.31344 4.0442C3.58357 3.77967 4.02144 3.77967 4.29099 4.0442L6.76871 6.47522C7.03825 6.74033 7.03825 7.17062 6.76871 7.43457C6.63393 7.56684 6.45678 7.63326 6.28022 7.63326C6.10308 7.63326 5.92593 7.56684 5.79116 7.43457L3.31344 5.00355ZM14.4026 23.4935V26.3213C14.4026 26.6962 14.0936 27 13.7122 27C13.3303 27 13.0207 26.6956 13.0207 26.3213V23.4935C13.0207 23.1187 13.3303 22.8143 13.7122 22.8143C14.0936 22.8143 14.4026 23.1181 14.4026 23.4935ZM7.31957 19.5643C7.58971 19.8288 7.58971 20.2585 7.31957 20.5236L4.84244 22.9552C4.70767 23.0881 4.53052 23.1551 4.35337 23.1551C4.17681 23.1551 3.99966 23.0875 3.86489 22.9552C3.59475 22.6907 3.59475 22.2604 3.86489 21.9953L6.34202 19.5643C6.61216 19.2992 7.04944 19.2992 7.31957 19.5643ZM24.6607 21.9953C24.9308 22.2604 24.9308 22.6895 24.6607 22.9552C24.5259 23.0881 24.3505 23.1551 24.1722 23.1551C23.9962 23.1551 23.8185 23.0875 23.6837 22.9552L21.2066 20.5236C20.9364 20.2585 20.9364 19.8294 21.2066 19.5643C21.4767 19.2992 21.9134 19.2992 22.1835 19.5643L24.6607 21.9953ZM3.80251 14.2309H0.691525C0.309568 14.2309 0 13.926 0 13.5517C0 13.1774 0.309568 12.8725 0.691525 12.8725H3.80251C4.18446 12.8725 4.49403 13.1768 4.49403 13.5517C4.49344 13.926 4.18446 14.2298 3.80251 14.2309ZM28 13.5517C28 13.9265 27.6904 14.2309 27.3091 14.2309H23.6207C23.2388 14.2309 22.9286 13.9265 22.9286 13.5517C22.9286 13.1768 23.2382 12.8725 23.6207 12.8725H27.3091C27.6904 12.8725 28 13.1763 28 13.5517Z" fill="#C4122F"/>
</svg>
